<svg xmlns="http://www.w3.org/2000/svg" width="745.417" height="415.501" overflow="visible" xml:space="preserve"><path fill="none" stroke="#F2C99F" stroke-width="5" d="M79.25 217.244s194-131 500-9"/><path fill="none" stroke="#000" stroke-width="2" d="m176.669 90.55-7.5 7.5 4 6.5h10.25l8-8-4.5-7.25zM185.479 59.203l-7.5 7.5 4 6.5h10.25l8-8-4.5-7.25zM218.943 31.13l-7.5 7.5 4 6.5h10.25l8-8-4.5-7.25zM270.814 14.271l-7.5 7.5 4 6.5h10.25l8-8-4.5-7.25zM240.659 40.117l-7.5 7.5 4 6.5h10.25l8-8-4.5-7.25zM211.495 66.659l-7.5 7.5 4 6.5h10.25l8-8-4.5-7.25zM257.177 63.951l-7.5 7.5 4 6.5h10.25l8-8-4.5-7.25zM214.719 96.52l-7.5 7.5 4 6.5h10.25l8-8-4.5-7.25zM185.329 121.641l-7.5 7.5 4 6.5h10.25l8-8-4.5-7.25zM261.687 265.199l-9.912-3.776-4.295 6.307 4.192 9.354 10.572 4.028 4.776-7.071zM244.209 282.677l-9.911-3.777-4.295 6.308 4.192 9.354 10.572 4.028 4.775-7.071zM127.127 268.716l-8.176 6.754 3.364 6.849 10.204.973 8.723-7.205-3.792-7.645zM267.439 297.913l-9.911-3.776-4.295 6.307 4.192 9.354 10.572 4.028 4.775-7.071zM292.494 278.612l-9.911-3.776-4.296 6.308 4.192 9.353 10.572 4.028 4.776-7.071zM325.226 275.269l-9.912-3.777-4.295 6.308 4.192 9.353 10.572 4.029 4.776-7.072zM300.831 316.583l-9.911-3.776-4.295 6.307 4.191 9.354 10.573 4.028 4.775-7.071zM116.5 288.625h-10.75l-7.562 7.563 3.437 6.937h10.125l7.5-7.5zM122.315 282.319l-5.815 6.306M97 310l-9.875-1.875-4.5 6.75 6.375 8.5 10.75 1.5 3.75-6.5zM76.125 314.375 70 305.5l-10.5-1.75-4.625 6.375 6.875 8.5 10 1.375zM82.625 314.875l-6.5-.5M97 310l4.625-6.875M114.75 312.75l-5.125 6.5 6.625 8.75 10.25 1.25 4.75-6-6.75-8.875zM136.875 324.125l4.125-5.75 10.25 1.25 6.75 8.125-4.375 6.875-10.375-1.25zM136.875 324.125l-5.625-.875M109.625 319.25l-6.125-.875M427.084 334.167l5.083-5.083 9.583 3.416 4.834 8.5M414.75 338.667l5 8.5 9.667 3.333 4.75-4.75M452.084 320.5l5.167 9 9.166 3.833 5.25-5.25M464.084 316.667l5.167-5.5 9.333 3.5 5.5 9.333M449.084 360.333l5.5 9.167 9 3.833 5.583-5.583M480.917 363.5l-5-9.333-9.833-2.834-5.334 5.333M567.083 370.001l7.5-2.5 1.667-9.334 9.5-4.166 1.5-10 9.667-4.167.833-8.167 9.667-5.5 1-8.166 10.5-5v-10.667l10.666-3.333 1.167-9.667 10.333-4.333.834-9.334 10-4.333v-6.333M570.917 387.334l7.833-3 1.5-9.667 9.333-3.833 1.5-9.667 10-4.666 1-8.834 9.334-4v-10l11.166-4.833 2-8.667 9.667-4.333.833-7.833 8.167-5.5 3-10 9.5-4.167v-6.333M599.917 377.167l7.166-2.666 1.334-8.834 9.833-4.666 1.333-8.834 9.834-5.166 1.5-9.5 9.166-4 1.167-9.334 8.667-4.333 2.166-9.167 10.167-5 1.667-9 8.833-4 1.333-10.166 10.334-4.667v-5.5"/><path fill="none" stroke="#E87E25" stroke-width="6" stroke-linecap="round" d="M462.75 119.167s9.334 4.5 6.167 43M489.583 120s-14 11.333-11 43.833"/><path fill="#F29C4B" stroke="#F29C4B" stroke-width="3" stroke-linecap="round" stroke-linejoin="round" d="M491.625 3.375 451.75 1.5l20.75 33.125zM223.5 241.25l-8.25 7.25M237.125 233.625 227.5 239M267.25 227.25l-11.625.75M251.875 229.125l-10.25 2.75M283 229.125 272.125 227M286.875 229.5l11 4.25M297.375 226.75l-7.937-7.937M319.75 246s-15-10.25-18.375-16"/><path fill="#F29C4B" stroke="#F29C4B" stroke-width="3" stroke-linecap="round" stroke-linejoin="round" d="M313.701 241.604s-8.451-6.729-11.701-6.729M334.875 254.125l-10-5.125M349 259.75l-9.625-4M364.875 263.125l-11.375-2.5M380.375 264.375l-11.5-.75M395.75 264.625h-11.375M395.875 265.25s-6.813.438-10.375 4M382.5 271l-9 7.875M370 281.375s-3.875 4.625-5.375 9.75M361.625 302.875l1.5-8.375M360.875 306.75l-1 5.625M410.125 263.25l-9.375 1.25M425.25 260.625l-10 1.875M439.5 255.25l-8.5 3.375M452.75 246.25l-8 6M461.75 233.625 456 242.75M436.005 256.638s-4.38 6.112-3.63 8.987M432.375 269.625s2 6.5 6.125 9.25M451.5 288.25s-8.125-5.25-9-6.125M455.125 289.875l10 4.125M470.25 295.25l10.625 1.625M485.5 297.625l10.375 1.125M500.875 299.375l11 3.875"/><path fill="#F29C4B" stroke="#F29C4B" stroke-width="3" stroke-linecap="round" d="m512.5 300.25-3.375 5.25 9.125 1.375zM359.563 316.688l-.938 7M362.625 321.375l-7.937-1.437 2.687 10.437z"/><path fill="none" stroke="#F2C99F" stroke-width="5" d="M83.25 239.5s211.334-127.333 500.667-8"/><path fill="#119448" d="M269.25 94.25s-17 12.591-25.25-4 12.75 143 19.625 154.625c2.291 3.873-8.125-3.875-8.125-3.875l14.75 29 6-30.5-4.75 4.75s-19.5-73.5-2.25-150z"/><path fill="#B8D77D" stroke="#184F27" stroke-width=".25" d="M230.75 119.5c-12 0-32 67.5 6.25 102.75 10.773 9.928 7.167-102.75-6.25-102.75z"/><path fill="none" d="M321.583 110h79.833v22.167h-79.833z"/><text transform="translate(321.583 124.91)" fill="#82BA41" font-family="'Myriad-Roman'" font-size="21" letter-spacing="1">glucose</text><path fill="none" d="M296 131.75h140v23.5H296z"/><text transform="translate(296 146.66)" fill="#82BA41" font-family="'Myriad-Roman'" font-size="21" letter-spacing="1">transporter-4</text><path fill="none" d="M502.083 132.167h85.667v23.5h-85.667z"/><text transform="translate(502.083 149.207)" fill="#DC8031" font-family="'Myriad-Roman'" font-size="24" letter-spacing="1">insulin</text><path fill="none" d="M502.083 155.667h96.167v20.167h-96.167z"/><text transform="translate(502.083 172.706)" fill="#DC8031" font-family="'Myriad-Roman'" font-size="24" letter-spacing="1">receptor</text><path fill="#96816E" stroke="#77695D" stroke-width=".25" d="M466.418 43.333s3.832 3 8.166 3 6.5-1.167 9-5.333-5.166 56.667-5.166 56.667L484.251 96l-8.667 19.333-9.666-19.167 6.333 2.333-5.833-55.166z"/><path fill="none" stroke="#119448" stroke-width="2" d="m377.85 325.097-6.75-.5-.75 6.75s7.375-1.125 7.375 3.875-7.75 5.25-9.125 1.375"/><path fill="none" d="M388.334 229.917h23.25v25.666h-23.25z"/><text transform="translate(388.334 246.957)" fill="#F29C4B" stroke="#F29C4B" stroke-width=".75" stroke-linecap="round" stroke-linejoin="round" font-family="'Myriad-Roman'" font-size="24" letter-spacing="1">2</text><path fill="none" d="M530.334 281.917h23.25v25.666h-23.25z"/><text transform="translate(530.334 298.957)" fill="#0D9347" font-family="'Myriad-Roman'" font-size="24" letter-spacing="1">6</text><path fill="none" d="M0 269.5h98.5v27.25H0z"/><text transform="translate(0 286.54)" font-family="'Myriad-Roman'" font-size="24">glycogen</text><path fill="none" d="M165.625 256.375h16.25v20.375h-16.25z"/><text transform="translate(165.625 273.415)" fill="#109849" font-family="'Myriad-Roman'" font-size="24">4</text><path fill="#F29C4B" stroke="#F29C4B" stroke-width="3" stroke-linecap="round" stroke-linejoin="round" d="m211.75 251.25-7.833 8.667"/><path fill="#F29C4B" stroke="#F29C4B" stroke-width="3" stroke-linecap="round" d="m208.083 261.583-6.166-3.75-1.834 9.25z"/><path fill="#F29C4B" stroke="#F29C4B" stroke-width="3" stroke-linecap="round" stroke-linejoin="round" d="m286.083 214.5-9.416-10.583M273 200.083 266.667 189"/><path fill="#B8D77D" stroke="#184F27" stroke-width=".25" d="M278.532 217.262c12.623.401 35.805-66.364-3.307-102.861-11.017-10.278-10.806 102.412 3.307 102.861z"/><path fill="none" d="M490.543 67.292h15.166v22.583h-15.166z"/><text transform="translate(490.543 84.332)" fill="#96816E" stroke="#96816E" font-family="'Myriad-Roman'" font-size="24">1</text><path fill="none" d="M498.499 7.75h72.917v23.417h-72.917z"/><text transform="translate(498.499 24.79)" fill="#F29C4B" stroke="#F29C4B" stroke-width=".25" stroke-linecap="round" stroke-linejoin="round" font-family="'Myriad-Roman'" font-size="24">insulin</text><path fill="none" d="M275.583 87.083h17.792v22.5h-17.792z"/><text transform="translate(275.584 104.124)" fill="#119448" font-family="'Myriad-Roman'" font-size="24">3</text><path fill="none" d="M393.25 387.167h118v28.334h-118z"/><text transform="translate(393.25 404.207)" font-family="'Myriad-Roman'" font-size="24">pyruvate</text><path fill="#119448" d="M322.625 332.25s6.75-1.5 6.75-4.125V316.5s27.449 37.21 58.375 29.875c2.458-.583 1.833 3.25 1.833 3.25s-30.958 15.125-66.958-17.375z"/><path fill="#119448" d="M389.208 352.542 387.5 343l11.792 1.792zM577.167 315.501l-3.291 8.166 12.083.375z"/><path fill="#119448" d="M508.375 332.25s-.875-7.875-5.375-9.625 40.15-26.232 74.25-4.875c3.437 2.152-1.375 3-1.375 3s-34.75-16.625-67.5 11.5z"/><path fill="none" d="M637.084 341.167h108.333v28.5H637.084z"/><text transform="translate(637.084 358.207)" font-family="'Myriad-Roman'" font-size="24">fatty acids</text><path fill="none" d="M111 31.416h84.5v30.167H111z"/><text transform="translate(111 48.456)" font-family="'Myriad-Roman'" font-size="24">glucose</text><path fill="none" stroke="#E87E25" stroke-width="6" stroke-linecap="round" d="M460.569 148.648s-11 39.167 2.167 70.5M488.25 147.5s10.5 45.334-16.5 74.167"/></svg>