<?xml version="1.0" encoding="utf-8"?>
<!-- Generator: Adobe Illustrator 23.0.5, SVG Export Plug-In . SVG Version: 6.00 Build 0)  -->
<svg version="1.1" id="Layer_1" xmlns="http://www.w3.org/2000/svg" xmlns:xlink="http://www.w3.org/1999/xlink" x="0px" y="0px" viewBox="0 0 872 573.8" style="enable-background:new 0 0 872 573.8;" xml:space="preserve">
<style type="text/css">
	.st0{fill:#4BC1D2;}
	.st1{fill:#FFFFFF;}
	.st2{font-family:'Noto Sans';}
	.st3{font-size:24px;}
</style>
<polygon class="st0" points="370.5,0 241.3,198.9 499,198.9 "/>
<polygon class="st0" points="501.6,204.4 236.5,204.4 162,319.9 576.9,319.9 "/>
<polygon class="st0" points="581,325.7 159.3,325.7 85.4,438.5 654.2,438.5 "/>
<polygon class="st0" points="654.2,443.9 85.4,443.9 0,573.8 738.9,573.8 "/>
<text transform="matrix(1 0 0 1 318.8346 158.1907)" class="st1 st2 st3">WISDOM</text>
<text transform="matrix(1 0 0 1 295.8219 267.9247)" class="st1 st2 st3">KNOWLEDGE</text>
<g>
	<text transform="matrix(1 0 0 1 287.8219 390.9872)" class="st1 st2 st3">INFORMATION</text>
</g>
<g>
<text transform="matrix(1 0 0 1 339.8736 520.8603)" class="st1 st2 st3">DATA</text>
</g>
<path d="M370.5,0"/>
<text transform="matrix(1 0 0 1 486 146.8812)" class="st2 st3">Knowing what to do with Drug A..</text>
<g>
<text transform="matrix(1 0 0 1 559.5 249.9246)" class="st2 st3">Drug A caused Gene X to be expressed</text>
</g>
<g>
<text transform="matrix(1 0 0 1 632.5 390.9872)" class="st2 st3">Gene X is expressed</text>
</g>
<g>
<text transform="matrix(1 0 0 1 710.5 520.8603)" class="st2 st3">RNASeq reads</text>
</g>
</svg>
