<?xml version="1.0" encoding="UTF-8" standalone="no"?>
<!DOCTYPE svg PUBLIC "-//W3C//DTD SVG 1.1//EN"
 "http://www.w3.org/Graphics/SVG/1.1/DTD/svg11.dtd">
<!-- Generated by graphviz version 2.40.1 (20161225.0304)
 -->
<!-- Title: G Pages: 1 -->
<svg width="753pt" height="566pt"
 viewBox="0.00 0.00 752.94 565.60" xmlns="http://www.w3.org/2000/svg" xmlns:xlink="http://www.w3.org/1999/xlink">
<g id="graph0" class="graph" transform="scale(1 1) rotate(0) translate(4 561.6)">
<title>G</title>
<polygon fill="#ffffff" stroke="transparent" points="-4,4 -4,-561.6 748.9426,-561.6 748.9426,4 -4,4"/>
<!-- GO:0030428 -->
<g id="node1" class="node">
<title>GO:0030428</title>
<polygon fill="#ffffff" stroke="#000000" points="181.213,-377.0019 92.0052,-377.0019 92.0052,-335.7981 181.213,-335.7981 181.213,-377.0019"/>
<text text-anchor="middle" x="136.6091" y="-360.6" font-family="Times,serif" font-size="14.00" fill="#000000">GO:0030428</text>
<text text-anchor="middle" x="136.6091" y="-343.8" font-family="Times,serif" font-size="14.00" fill="#000000">cell septum</text>
</g>
<!-- GO:0044464 -->
<g id="node2" class="node">
<title>GO:0044464</title>
<polygon fill="#ffffff" stroke="#000000" points="302.213,-471.4019 213.0052,-471.4019 213.0052,-430.1981 302.213,-430.1981 302.213,-471.4019"/>
<text text-anchor="middle" x="257.6091" y="-455" font-family="Times,serif" font-size="14.00" fill="#000000">GO:0044464</text>
<text text-anchor="middle" x="257.6091" y="-438.2" font-family="Times,serif" font-size="14.00" fill="#000000">cell part</text>
</g>
<!-- GO:0030428&#45;&gt;GO:0044464 -->
<g id="edge1" class="edge">
<title>GO:0030428&#45;&gt;GO:0044464</title>
<path fill="none" stroke="#000000" d="M163.1631,-377.1165C180.7369,-390.827 203.9607,-408.9454 222.9811,-423.7845"/>
<polygon fill="#000000" stroke="#000000" points="221.0798,-426.7402 231.1171,-430.1318 225.3856,-421.2211 221.0798,-426.7402"/>
</g>
<!-- GO:0005575 -->
<g id="node3" class="node">
<title>GO:0005575</title>
<polygon fill="#ffffff" stroke="#000000" points="384.2958,-557.4019 256.9224,-557.4019 256.9224,-516.1981 384.2958,-516.1981 384.2958,-557.4019"/>
<text text-anchor="middle" x="320.6091" y="-541" font-family="Times,serif" font-size="14.00" fill="#000000">GO:0005575</text>
<text text-anchor="middle" x="320.6091" y="-524.2" font-family="Times,serif" font-size="14.00" fill="#000000">cellular_component</text>
</g>
<!-- GO:0044464&#45;&gt;GO:0005575 -->
<g id="edge2" class="edge">
<title>GO:0044464&#45;&gt;GO:0005575</title>
<path fill="none" stroke="#000000" d="M272.8596,-471.6182C280.8302,-482.4987 290.7122,-495.9884 299.4148,-507.8681"/>
<polygon fill="#000000" stroke="#000000" points="296.7659,-510.1748 305.499,-516.1735 302.4129,-506.0381 296.7659,-510.1748"/>
</g>
<!-- GO:0031521 -->
<g id="node4" class="node">
<title>GO:0031521</title>
<polygon fill="#ffffff" stroke="#000000" points="711.8001,-377.0019 619.4181,-377.0019 619.4181,-335.7981 711.8001,-335.7981 711.8001,-377.0019"/>
<text text-anchor="middle" x="665.6091" y="-360.6" font-family="Times,serif" font-size="14.00" fill="#000000">GO:0031521</text>
<text text-anchor="middle" x="665.6091" y="-343.8" font-family="Times,serif" font-size="14.00" fill="#000000">spitzenkorper</text>
</g>
<!-- GO:0031521&#45;&gt;GO:0044464 -->
<g id="edge4" class="edge">
<title>GO:0031521&#45;&gt;GO:0044464</title>
<path fill="none" stroke="#000000" d="M631.241,-377.1041C624.582,-380.401 617.5208,-383.4335 610.6091,-385.6 482.4667,-425.766 438.4364,-380.4422 310.6091,-421.6 307.0498,-422.746 303.4556,-424.1379 299.9052,-425.685"/>
<polygon fill="#000000" stroke="#000000" points="298.1901,-422.6249 290.6628,-430.0809 301.1967,-428.9464 298.1901,-422.6249"/>
</g>
<!-- GO:0043234 -->
<g id="node5" class="node">
<title>GO:0043234</title>
<polygon fill="#ffffff" stroke="#000000" points="719.4765,-471.4019 611.7417,-471.4019 611.7417,-430.1981 719.4765,-430.1981 719.4765,-471.4019"/>
<text text-anchor="middle" x="665.6091" y="-455" font-family="Times,serif" font-size="14.00" fill="#000000">GO:0043234</text>
<text text-anchor="middle" x="665.6091" y="-438.2" font-family="Times,serif" font-size="14.00" fill="#000000">protein complex</text>
</g>
<!-- GO:0031521&#45;&gt;GO:0043234 -->
<g id="edge3" class="edge">
<title>GO:0031521&#45;&gt;GO:0043234</title>
<path fill="none" stroke="#000000" d="M665.6091,-377.3504C665.6091,-389.8165 665.6091,-405.8645 665.6091,-419.7786"/>
<polygon fill="#000000" stroke="#000000" points="662.1092,-419.9081 665.6091,-429.9081 669.1092,-419.9082 662.1092,-419.9081"/>
</g>
<!-- GO:0032991 -->
<g id="node6" class="node">
<title>GO:0032991</title>
<polygon fill="#ffffff" stroke="#000000" points="744.7764,-557.4019 586.4418,-557.4019 586.4418,-516.1981 744.7764,-516.1981 744.7764,-557.4019"/>
<text text-anchor="middle" x="665.6091" y="-541" font-family="Times,serif" font-size="14.00" fill="#000000">GO:0032991</text>
<text text-anchor="middle" x="665.6091" y="-524.2" font-family="Times,serif" font-size="14.00" fill="#000000">macromolecular complex</text>
</g>
<!-- GO:0043234&#45;&gt;GO:0032991 -->
<g id="edge5" class="edge">
<title>GO:0043234&#45;&gt;GO:0032991</title>
<path fill="none" stroke="#000000" d="M665.6091,-471.6182C665.6091,-481.9705 665.6091,-494.6848 665.6091,-506.1271"/>
<polygon fill="#000000" stroke="#000000" points="662.1092,-506.1735 665.6091,-516.1735 669.1092,-506.1735 662.1092,-506.1735"/>
</g>
<!-- GO:0032163 -->
<g id="node7" class="node">
<title>GO:0032163</title>
<polygon fill="#ffffff" stroke="#000000" points="130.3695,-41.4019 8.8487,-41.4019 8.8487,-.1981 130.3695,-.1981 130.3695,-41.4019"/>
<text text-anchor="middle" x="69.6091" y="-25" font-family="Times,serif" font-size="14.00" fill="#000000">GO:0032163</text>
<text text-anchor="middle" x="69.6091" y="-8.2" font-family="Times,serif" font-size="14.00" fill="#000000">hyphal septin band</text>
</g>
<!-- GO:0032158 -->
<g id="node8" class="node">
<title>GO:0032158</title>
<polygon fill="#ffffff" stroke="#000000" points="114.213,-119.0019 25.0052,-119.0019 25.0052,-77.7981 114.213,-77.7981 114.213,-119.0019"/>
<text text-anchor="middle" x="69.6091" y="-102.6" font-family="Times,serif" font-size="14.00" fill="#000000">GO:0032158</text>
<text text-anchor="middle" x="69.6091" y="-85.8" font-family="Times,serif" font-size="14.00" fill="#000000">septin band</text>
</g>
<!-- GO:0032163&#45;&gt;GO:0032158 -->
<g id="edge6" class="edge">
<title>GO:0032163&#45;&gt;GO:0032158</title>
<path fill="none" stroke="#000000" d="M69.6091,-41.5954C69.6091,-49.5109 69.6091,-58.7109 69.6091,-67.3722"/>
<polygon fill="#000000" stroke="#000000" points="66.1092,-67.5472 69.6091,-77.5472 73.1092,-67.5473 66.1092,-67.5472"/>
</g>
<!-- GO:0044430 -->
<g id="node9" class="node">
<title>GO:0044430</title>
<polygon fill="#ffffff" stroke="#000000" points="123.7404,-196.6019 15.4778,-196.6019 15.4778,-155.3981 123.7404,-155.3981 123.7404,-196.6019"/>
<text text-anchor="middle" x="69.6091" y="-180.2" font-family="Times,serif" font-size="14.00" fill="#000000">GO:0044430</text>
<text text-anchor="middle" x="69.6091" y="-163.4" font-family="Times,serif" font-size="14.00" fill="#000000">cytoskeletal part</text>
</g>
<!-- GO:0032158&#45;&gt;GO:0044430 -->
<g id="edge7" class="edge">
<title>GO:0032158&#45;&gt;GO:0044430</title>
<path fill="none" stroke="#000000" d="M69.6091,-119.1954C69.6091,-127.1109 69.6091,-136.3109 69.6091,-144.9722"/>
<polygon fill="#000000" stroke="#000000" points="66.1092,-145.1472 69.6091,-155.1472 73.1092,-145.1473 66.1092,-145.1472"/>
</g>
<!-- GO:0044446 -->
<g id="node10" class="node">
<title>GO:0044446</title>
<polygon fill="#ffffff" stroke="#000000" points="139.3275,-291.4014 -.1093,-291.4014 -.1093,-232.5986 139.3275,-232.5986 139.3275,-291.4014"/>
<text text-anchor="middle" x="69.6091" y="-274.6" font-family="Times,serif" font-size="14.00" fill="#000000">GO:0044446</text>
<text text-anchor="middle" x="69.6091" y="-257.8" font-family="Times,serif" font-size="14.00" fill="#000000">intracellular organelle</text>
<text text-anchor="middle" x="69.6091" y="-241" font-family="Times,serif" font-size="14.00" fill="#000000">part</text>
</g>
<!-- GO:0044430&#45;&gt;GO:0044446 -->
<g id="edge8" class="edge">
<title>GO:0044430&#45;&gt;GO:0044446</title>
<path fill="none" stroke="#000000" d="M69.6091,-196.8182C69.6091,-204.5358 69.6091,-213.5662 69.6091,-222.4036"/>
<polygon fill="#000000" stroke="#000000" points="66.1092,-222.5991 69.6091,-232.5991 73.1092,-222.5992 66.1092,-222.5991"/>
</g>
<!-- GO:0044424 -->
<g id="node11" class="node">
<title>GO:0044424</title>
<polygon fill="#ffffff" stroke="#000000" points="308.0075,-377.0019 199.2107,-377.0019 199.2107,-335.7981 308.0075,-335.7981 308.0075,-377.0019"/>
<text text-anchor="middle" x="253.6091" y="-360.6" font-family="Times,serif" font-size="14.00" fill="#000000">GO:0044424</text>
<text text-anchor="middle" x="253.6091" y="-343.8" font-family="Times,serif" font-size="14.00" fill="#000000">intracellular part</text>
</g>
<!-- GO:0044446&#45;&gt;GO:0044424 -->
<g id="edge9" class="edge">
<title>GO:0044446&#45;&gt;GO:0044424</title>
<path fill="none" stroke="#000000" d="M126.5678,-291.2223C151.4623,-303.9942 180.3814,-318.831 204.3337,-331.1196"/>
<polygon fill="#000000" stroke="#000000" points="202.7567,-334.2442 213.2517,-335.6949 205.952,-328.016 202.7567,-334.2442"/>
</g>
<!-- GO:0044422 -->
<g id="node12" class="node">
<title>GO:0044422</title>
<polygon fill="#ffffff" stroke="#000000" points="155.4612,-471.4019 61.757,-471.4019 61.757,-430.1981 155.4612,-430.1981 155.4612,-471.4019"/>
<text text-anchor="middle" x="108.6091" y="-455" font-family="Times,serif" font-size="14.00" fill="#000000">GO:0044422</text>
<text text-anchor="middle" x="108.6091" y="-438.2" font-family="Times,serif" font-size="14.00" fill="#000000">organelle part</text>
</g>
<!-- GO:0044446&#45;&gt;GO:0044422 -->
<g id="edge10" class="edge">
<title>GO:0044446&#45;&gt;GO:0044422</title>
<path fill="none" stroke="#000000" d="M70.4336,-291.3588C71.6782,-316.6507 74.7975,-353.9695 82.6091,-385.6 85.5172,-397.3754 90.0942,-409.85 94.6027,-420.7002"/>
<polygon fill="#000000" stroke="#000000" points="91.5003,-422.3448 98.6742,-430.1414 97.9281,-419.5728 91.5003,-422.3448"/>
</g>
<!-- GO:0044424&#45;&gt;GO:0044464 -->
<g id="edge11" class="edge">
<title>GO:0044424&#45;&gt;GO:0044464</title>
<path fill="none" stroke="#000000" d="M254.4968,-377.3504C255.0251,-389.8165 255.7051,-405.8645 256.2946,-419.7786"/>
<polygon fill="#000000" stroke="#000000" points="252.8035,-420.0653 256.7239,-429.9081 259.7973,-419.7689 252.8035,-420.0653"/>
</g>
<!-- GO:0044422&#45;&gt;GO:0005575 -->
<g id="edge12" class="edge">
<title>GO:0044422&#45;&gt;GO:0005575</title>
<path fill="none" stroke="#000000" d="M155.3958,-469.7795C186.1378,-482.2503 226.6632,-498.6899 259.8832,-512.1659"/>
<polygon fill="#000000" stroke="#000000" points="258.9087,-515.5475 269.4909,-516.0634 261.5401,-509.0609 258.9087,-515.5475"/>
</g>
<!-- GO:0005576 -->
<g id="node13" class="node">
<title>GO:0005576</title>
<polygon fill="#ffffff" stroke="#000000" points="445.3317,-471.4019 319.8865,-471.4019 319.8865,-430.1981 445.3317,-430.1981 445.3317,-471.4019"/>
<text text-anchor="middle" x="382.6091" y="-455" font-family="Times,serif" font-size="14.00" fill="#000000">GO:0005576</text>
<text text-anchor="middle" x="382.6091" y="-438.2" font-family="Times,serif" font-size="14.00" fill="#000000">extracellular region</text>
</g>
<!-- GO:0005576&#45;&gt;GO:0005575 -->
<g id="edge13" class="edge">
<title>GO:0005576&#45;&gt;GO:0005575</title>
<path fill="none" stroke="#000000" d="M367.6006,-471.6182C359.7566,-482.4987 350.0314,-495.9884 341.467,-507.8681"/>
<polygon fill="#000000" stroke="#000000" points="338.4883,-506.0149 335.4794,-516.1735 344.1665,-510.1086 338.4883,-506.0149"/>
</g>
<!-- GO:0042597 -->
<g id="node14" class="node">
<title>GO:0042597</title>
<polygon fill="#ffffff" stroke="#000000" points="441.5089,-377.0019 325.7093,-377.0019 325.7093,-335.7981 441.5089,-335.7981 441.5089,-377.0019"/>
<text text-anchor="middle" x="383.6091" y="-360.6" font-family="Times,serif" font-size="14.00" fill="#000000">GO:0042597</text>
<text text-anchor="middle" x="383.6091" y="-343.8" font-family="Times,serif" font-size="14.00" fill="#000000">periplasmic space</text>
</g>
<!-- GO:0042597&#45;&gt;GO:0044464 -->
<g id="edge14" class="edge">
<title>GO:0042597&#45;&gt;GO:0044464</title>
<path fill="none" stroke="#000000" d="M355.9579,-377.1165C337.5758,-390.8885 313.2573,-409.108 293.4018,-423.9839"/>
<polygon fill="#000000" stroke="#000000" points="291.1003,-421.3348 285.1958,-430.1318 295.2975,-426.9369 291.1003,-421.3348"/>
</g>
<!-- GO:0030288 -->
<g id="node15" class="node">
<title>GO:0030288</title>
<polygon fill="#ffffff" stroke="#000000" points="328.8359,-291.4014 168.3823,-291.4014 168.3823,-232.5986 328.8359,-232.5986 328.8359,-291.4014"/>
<text text-anchor="middle" x="248.6091" y="-274.6" font-family="Times,serif" font-size="14.00" fill="#000000">GO:0030288</text>
<text text-anchor="middle" x="248.6091" y="-257.8" font-family="Times,serif" font-size="14.00" fill="#000000">outer membrane&#45;bounded</text>
<text text-anchor="middle" x="248.6091" y="-241" font-family="Times,serif" font-size="14.00" fill="#000000">periplasmic space</text>
</g>
<!-- GO:0030288&#45;&gt;GO:0042597 -->
<g id="edge15" class="edge">
<title>GO:0030288&#45;&gt;GO:0042597</title>
<path fill="none" stroke="#000000" d="M290.5839,-291.3513C308.1166,-303.6112 328.3436,-317.7551 345.4494,-329.7165"/>
<polygon fill="#000000" stroke="#000000" points="343.8784,-332.8887 354.0793,-335.751 347.8898,-327.1521 343.8784,-332.8887"/>
</g>
<!-- GO:0030287 -->
<g id="node16" class="node">
<title>GO:0030287</title>
<polygon fill="#ffffff" stroke="#000000" points="462.7975,-291.4014 346.4207,-291.4014 346.4207,-232.5986 462.7975,-232.5986 462.7975,-291.4014"/>
<text text-anchor="middle" x="404.6091" y="-274.6" font-family="Times,serif" font-size="14.00" fill="#000000">GO:0030287</text>
<text text-anchor="middle" x="404.6091" y="-257.8" font-family="Times,serif" font-size="14.00" fill="#000000">cell wall&#45;bounded</text>
<text text-anchor="middle" x="404.6091" y="-241" font-family="Times,serif" font-size="14.00" fill="#000000">periplasmic space</text>
</g>
<!-- GO:0030287&#45;&gt;GO:0042597 -->
<g id="edge16" class="edge">
<title>GO:0030287&#45;&gt;GO:0042597</title>
<path fill="none" stroke="#000000" d="M398.0797,-291.3513C395.6526,-302.2614 392.8937,-314.6637 390.4403,-325.692"/>
<polygon fill="#000000" stroke="#000000" points="386.9577,-325.2295 388.2026,-335.751 393.7907,-326.7496 386.9577,-325.2295"/>
</g>
<!-- GO:0044420 -->
<g id="node17" class="node">
<title>GO:0044420</title>
<polygon fill="#ffffff" stroke="#000000" points="589.6127,-480.2014 463.6055,-480.2014 463.6055,-421.3986 589.6127,-421.3986 589.6127,-480.2014"/>
<text text-anchor="middle" x="526.6091" y="-463.4" font-family="Times,serif" font-size="14.00" fill="#000000">GO:0044420</text>
<text text-anchor="middle" x="526.6091" y="-446.6" font-family="Times,serif" font-size="14.00" fill="#000000">extracellular matrix</text>
<text text-anchor="middle" x="526.6091" y="-429.8" font-family="Times,serif" font-size="14.00" fill="#000000">component</text>
</g>
<!-- GO:0044420&#45;&gt;GO:0005575 -->
<g id="edge17" class="edge">
<title>GO:0044420&#45;&gt;GO:0005575</title>
<path fill="none" stroke="#000000" d="M463.4023,-477.1873C436.6473,-488.3569 405.6591,-501.2937 379.4016,-512.2556"/>
<polygon fill="#000000" stroke="#000000" points="377.8381,-509.1154 369.9584,-516.1979 380.5349,-515.5751 377.8381,-509.1154"/>
</g>
<!-- GO:0009277 -->
<g id="node18" class="node">
<title>GO:0009277</title>
<polygon fill="#ffffff" stroke="#000000" points="596.4536,-196.6019 464.7646,-196.6019 464.7646,-155.3981 596.4536,-155.3981 596.4536,-196.6019"/>
<text text-anchor="middle" x="530.6091" y="-180.2" font-family="Times,serif" font-size="14.00" fill="#000000">GO:0009277</text>
<text text-anchor="middle" x="530.6091" y="-163.4" font-family="Times,serif" font-size="14.00" fill="#000000">fungal&#45;type cell wall</text>
</g>
<!-- GO:0005618 -->
<g id="node19" class="node">
<title>GO:0005618</title>
<polygon fill="#ffffff" stroke="#000000" points="575.213,-282.6019 486.0052,-282.6019 486.0052,-241.3981 575.213,-241.3981 575.213,-282.6019"/>
<text text-anchor="middle" x="530.6091" y="-266.2" font-family="Times,serif" font-size="14.00" fill="#000000">GO:0005618</text>
<text text-anchor="middle" x="530.6091" y="-249.4" font-family="Times,serif" font-size="14.00" fill="#000000">cell wall</text>
</g>
<!-- GO:0009277&#45;&gt;GO:0005618 -->
<g id="edge18" class="edge">
<title>GO:0009277&#45;&gt;GO:0005618</title>
<path fill="none" stroke="#000000" d="M530.6091,-196.8182C530.6091,-207.1705 530.6091,-219.8848 530.6091,-231.3271"/>
<polygon fill="#000000" stroke="#000000" points="527.1092,-231.3735 530.6091,-241.3735 534.1092,-231.3735 527.1092,-231.3735"/>
</g>
<!-- GO:0030312 -->
<g id="node20" class="node">
<title>GO:0030312</title>
<polygon fill="#ffffff" stroke="#000000" points="601.1702,-385.8014 460.048,-385.8014 460.048,-326.9986 601.1702,-326.9986 601.1702,-385.8014"/>
<text text-anchor="middle" x="530.6091" y="-369" font-family="Times,serif" font-size="14.00" fill="#000000">GO:0030312</text>
<text text-anchor="middle" x="530.6091" y="-352.2" font-family="Times,serif" font-size="14.00" fill="#000000">external encapsulating</text>
<text text-anchor="middle" x="530.6091" y="-335.4" font-family="Times,serif" font-size="14.00" fill="#000000">structure</text>
</g>
<!-- GO:0005618&#45;&gt;GO:0030312 -->
<g id="edge19" class="edge">
<title>GO:0005618&#45;&gt;GO:0030312</title>
<path fill="none" stroke="#000000" d="M530.6091,-282.9504C530.6091,-292.9492 530.6091,-305.2525 530.6091,-316.9106"/>
<polygon fill="#000000" stroke="#000000" points="527.1092,-316.9155 530.6091,-326.9155 534.1092,-316.9156 527.1092,-316.9155"/>
</g>
<!-- GO:0030312&#45;&gt;GO:0044464 -->
<g id="edge20" class="edge">
<title>GO:0030312&#45;&gt;GO:0044464</title>
<path fill="none" stroke="#000000" d="M459.6324,-382.7169C456.5918,-383.7144 453.5745,-384.68 450.6091,-385.6 389.248,-404.6372 370.3288,-397.9112 310.6091,-421.6 307.533,-422.8202 304.4115,-424.1822 301.3023,-425.6326"/>
<polygon fill="#000000" stroke="#000000" points="299.4834,-422.6274 292.0694,-430.1959 302.585,-428.9028 299.4834,-422.6274"/>
</g>
</g>
</svg>
