<?xml version="1.0" encoding="UTF-8" standalone="no"?>
<!DOCTYPE svg PUBLIC "-//W3C//DTD SVG 1.1//EN"
 "http://www.w3.org/Graphics/SVG/1.1/DTD/svg11.dtd">
<!-- Generated by graphviz version 2.40.1 (20161225.0304)
 -->
<!-- Title: G Pages: 1 -->
<svg width="1053pt" height="616pt"
 viewBox="0.00 0.00 1052.70 616.00" xmlns="http://www.w3.org/2000/svg" xmlns:xlink="http://www.w3.org/1999/xlink">
<g id="graph0" class="graph" transform="scale(1 1) rotate(0) translate(4 612)">
<title>G</title>
<polygon fill="#ffffff" stroke="transparent" points="-4,4 -4,-612 1048.6992,-612 1048.6992,4 -4,4"/>
<!-- GO:0005201 -->
<g id="node1" class="node">
<title>GO:0005201</title>
<polygon fill="#ffffff" stroke="#000000" points="133.7046,-436.2014 .0984,-436.2014 .0984,-377.3986 133.7046,-377.3986 133.7046,-436.2014"/>
<text text-anchor="middle" x="66.9015" y="-419.4" font-family="Times,serif" font-size="14.00" fill="#000000">GO:0005201</text>
<text text-anchor="middle" x="66.9015" y="-402.6" font-family="Times,serif" font-size="14.00" fill="#000000">extracellular matrix</text>
<text text-anchor="middle" x="66.9015" y="-385.8" font-family="Times,serif" font-size="14.00" fill="#000000">structural constituent</text>
</g>
<!-- GO:0005198 -->
<g id="node2" class="node">
<title>GO:0005198</title>
<polygon fill="#ffffff" stroke="#000000" points="285.5843,-530.6014 162.2187,-530.6014 162.2187,-471.7986 285.5843,-471.7986 285.5843,-530.6014"/>
<text text-anchor="middle" x="223.9015" y="-513.8" font-family="Times,serif" font-size="14.00" fill="#000000">GO:0005198</text>
<text text-anchor="middle" x="223.9015" y="-497" font-family="Times,serif" font-size="14.00" fill="#000000">structural molecule</text>
<text text-anchor="middle" x="223.9015" y="-480.2" font-family="Times,serif" font-size="14.00" fill="#000000">activity</text>
</g>
<!-- GO:0005201&#45;&gt;GO:0005198 -->
<g id="edge1" class="edge">
<title>GO:0005201&#45;&gt;GO:0005198</title>
<path fill="none" stroke="#000000" d="M115.7167,-436.1513C131.8139,-445.8301 149.8641,-456.6833 166.5394,-466.7097"/>
<polygon fill="#000000" stroke="#000000" points="164.7428,-469.7134 175.1165,-471.8669 168.35,-463.7143 164.7428,-469.7134"/>
</g>
<!-- GO:0003674 -->
<g id="node3" class="node">
<title>GO:0003674</title>
<polygon fill="#ffffff" stroke="#000000" points="566.5346,-607.8019 441.2684,-607.8019 441.2684,-566.5981 566.5346,-566.5981 566.5346,-607.8019"/>
<text text-anchor="middle" x="503.9015" y="-591.4" font-family="Times,serif" font-size="14.00" fill="#000000">GO:0003674</text>
<text text-anchor="middle" x="503.9015" y="-574.6" font-family="Times,serif" font-size="14.00" fill="#000000">molecular_function</text>
</g>
<!-- GO:0005198&#45;&gt;GO:0003674 -->
<g id="edge2" class="edge">
<title>GO:0005198&#45;&gt;GO:0003674</title>
<path fill="none" stroke="#000000" d="M285.6953,-520.1795C328.6067,-533.3594 385.9509,-550.9723 431.0845,-564.8348"/>
<polygon fill="#000000" stroke="#000000" points="430.2249,-568.2321 440.8118,-567.8224 432.2802,-561.5406 430.2249,-568.2321"/>
</g>
<!-- GO:0043208 -->
<g id="node4" class="node">
<title>GO:0043208</title>
<polygon fill="#ffffff" stroke="#000000" points="342.7954,-230.2019 179.0076,-230.2019 179.0076,-188.9981 342.7954,-188.9981 342.7954,-230.2019"/>
<text text-anchor="middle" x="260.9015" y="-213.8" font-family="Times,serif" font-size="14.00" fill="#000000">GO:0043208</text>
<text text-anchor="middle" x="260.9015" y="-197" font-family="Times,serif" font-size="14.00" fill="#000000">glycosphingolipid binding</text>
</g>
<!-- GO:0046625 -->
<g id="node5" class="node">
<title>GO:0046625</title>
<polygon fill="#ffffff" stroke="#000000" points="255.19,-333.0019 122.613,-333.0019 122.613,-291.7981 255.19,-291.7981 255.19,-333.0019"/>
<text text-anchor="middle" x="188.9015" y="-316.6" font-family="Times,serif" font-size="14.00" fill="#000000">GO:0046625</text>
<text text-anchor="middle" x="188.9015" y="-299.8" font-family="Times,serif" font-size="14.00" fill="#000000">sphingolipid binding</text>
</g>
<!-- GO:0043208&#45;&gt;GO:0046625 -->
<g id="edge3" class="edge">
<title>GO:0043208&#45;&gt;GO:0046625</title>
<path fill="none" stroke="#000000" d="M246.3312,-230.4031C235.6938,-245.591 221.1315,-266.3827 209.3328,-283.2287"/>
<polygon fill="#000000" stroke="#000000" points="206.3201,-281.4291 203.4501,-291.6278 212.0537,-285.4449 206.3201,-281.4291"/>
</g>
<!-- GO:0051861 -->
<g id="node6" class="node">
<title>GO:0051861</title>
<polygon fill="#ffffff" stroke="#000000" points="392.4597,-333.0019 273.3433,-333.0019 273.3433,-291.7981 392.4597,-291.7981 392.4597,-333.0019"/>
<text text-anchor="middle" x="332.9015" y="-316.6" font-family="Times,serif" font-size="14.00" fill="#000000">GO:0051861</text>
<text text-anchor="middle" x="332.9015" y="-299.8" font-family="Times,serif" font-size="14.00" fill="#000000">glycolipid binding</text>
</g>
<!-- GO:0043208&#45;&gt;GO:0051861 -->
<g id="edge4" class="edge">
<title>GO:0043208&#45;&gt;GO:0051861</title>
<path fill="none" stroke="#000000" d="M275.4718,-230.4031C286.1092,-245.591 300.6715,-266.3827 312.4702,-283.2287"/>
<polygon fill="#000000" stroke="#000000" points="309.7493,-285.4449 318.3529,-291.6278 315.4829,-281.4291 309.7493,-285.4449"/>
</g>
<!-- GO:0008289 -->
<g id="node7" class="node">
<title>GO:0008289</title>
<polygon fill="#ffffff" stroke="#000000" points="240.5054,-427.4019 151.2976,-427.4019 151.2976,-386.1981 240.5054,-386.1981 240.5054,-427.4019"/>
<text text-anchor="middle" x="195.9015" y="-411" font-family="Times,serif" font-size="14.00" fill="#000000">GO:0008289</text>
<text text-anchor="middle" x="195.9015" y="-394.2" font-family="Times,serif" font-size="14.00" fill="#000000">lipid binding</text>
</g>
<!-- GO:0046625&#45;&gt;GO:0008289 -->
<g id="edge5" class="edge">
<title>GO:0046625&#45;&gt;GO:0008289</title>
<path fill="none" stroke="#000000" d="M190.455,-333.3504C191.3794,-345.8165 192.5694,-361.8645 193.6012,-375.7786"/>
<polygon fill="#000000" stroke="#000000" points="190.1223,-376.1944 194.3523,-385.9081 197.1031,-375.6767 190.1223,-376.1944"/>
</g>
<!-- GO:0051861&#45;&gt;GO:0008289 -->
<g id="edge7" class="edge">
<title>GO:0051861&#45;&gt;GO:0008289</title>
<path fill="none" stroke="#000000" d="M302.8363,-333.1165C282.6709,-347.0114 255.9352,-365.4337 234.2418,-380.3815"/>
<polygon fill="#000000" stroke="#000000" points="232.1452,-377.5758 225.8966,-386.1318 236.117,-383.3399 232.1452,-377.5758"/>
</g>
<!-- GO:0097367 -->
<g id="node8" class="node">
<title>GO:0097367</title>
<polygon fill="#ffffff" stroke="#000000" points="406.9486,-436.2014 258.8544,-436.2014 258.8544,-377.3986 406.9486,-377.3986 406.9486,-436.2014"/>
<text text-anchor="middle" x="332.9015" y="-419.4" font-family="Times,serif" font-size="14.00" fill="#000000">GO:0097367</text>
<text text-anchor="middle" x="332.9015" y="-402.6" font-family="Times,serif" font-size="14.00" fill="#000000">carbohydrate derivative</text>
<text text-anchor="middle" x="332.9015" y="-385.8" font-family="Times,serif" font-size="14.00" fill="#000000">binding</text>
</g>
<!-- GO:0051861&#45;&gt;GO:0097367 -->
<g id="edge6" class="edge">
<title>GO:0051861&#45;&gt;GO:0097367</title>
<path fill="none" stroke="#000000" d="M332.9015,-333.3504C332.9015,-343.3492 332.9015,-355.6525 332.9015,-367.3106"/>
<polygon fill="#000000" stroke="#000000" points="329.4016,-367.3155 332.9015,-377.3155 336.4016,-367.3156 329.4016,-367.3155"/>
</g>
<!-- GO:0005488 -->
<g id="node9" class="node">
<title>GO:0005488</title>
<polygon fill="#ffffff" stroke="#000000" points="548.5054,-521.8019 459.2976,-521.8019 459.2976,-480.5981 548.5054,-480.5981 548.5054,-521.8019"/>
<text text-anchor="middle" x="503.9015" y="-505.4" font-family="Times,serif" font-size="14.00" fill="#000000">GO:0005488</text>
<text text-anchor="middle" x="503.9015" y="-488.6" font-family="Times,serif" font-size="14.00" fill="#000000">binding</text>
</g>
<!-- GO:0008289&#45;&gt;GO:0005488 -->
<g id="edge8" class="edge">
<title>GO:0008289&#45;&gt;GO:0005488</title>
<path fill="none" stroke="#000000" d="M231.3341,-427.5377C237.4095,-430.6331 243.7492,-433.589 249.9015,-436 316.4643,-462.0847 396.9384,-480.7009 449.2121,-491.1963"/>
<polygon fill="#000000" stroke="#000000" points="448.7894,-494.6804 459.2784,-493.1869 450.1474,-487.8134 448.7894,-494.6804"/>
</g>
<!-- GO:0097367&#45;&gt;GO:0005488 -->
<g id="edge9" class="edge">
<title>GO:0097367&#45;&gt;GO:0005488</title>
<path fill="none" stroke="#000000" d="M386.0696,-436.1513C408.9907,-448.8048 435.5475,-463.4654 457.6406,-475.6618"/>
<polygon fill="#000000" stroke="#000000" points="456.0509,-478.7821 466.497,-480.551 459.434,-472.6539 456.0509,-478.7821"/>
</g>
<!-- GO:0005488&#45;&gt;GO:0003674 -->
<g id="edge10" class="edge">
<title>GO:0005488&#45;&gt;GO:0003674</title>
<path fill="none" stroke="#000000" d="M503.9015,-522.0182C503.9015,-532.3705 503.9015,-545.0848 503.9015,-556.5271"/>
<polygon fill="#000000" stroke="#000000" points="500.4016,-556.5735 503.9015,-566.5735 507.4016,-556.5735 500.4016,-556.5735"/>
</g>
<!-- GO:0044822 -->
<g id="node10" class="node">
<title>GO:0044822</title>
<polygon fill="#ffffff" stroke="#000000" points="656.5513,-135.8019 517.2517,-135.8019 517.2517,-94.5981 656.5513,-94.5981 656.5513,-135.8019"/>
<text text-anchor="middle" x="586.9015" y="-119.4" font-family="Times,serif" font-size="14.00" fill="#000000">GO:0044822</text>
<text text-anchor="middle" x="586.9015" y="-102.6" font-family="Times,serif" font-size="14.00" fill="#000000">poly(A) RNA binding</text>
</g>
<!-- GO:0003723 -->
<g id="node11" class="node">
<title>GO:0003723</title>
<polygon fill="#ffffff" stroke="#000000" points="632.7327,-230.2019 541.0703,-230.2019 541.0703,-188.9981 632.7327,-188.9981 632.7327,-230.2019"/>
<text text-anchor="middle" x="586.9015" y="-213.8" font-family="Times,serif" font-size="14.00" fill="#000000">GO:0003723</text>
<text text-anchor="middle" x="586.9015" y="-197" font-family="Times,serif" font-size="14.00" fill="#000000">RNA binding</text>
</g>
<!-- GO:0044822&#45;&gt;GO:0003723 -->
<g id="edge11" class="edge">
<title>GO:0044822&#45;&gt;GO:0003723</title>
<path fill="none" stroke="#000000" d="M586.9015,-136.1504C586.9015,-148.6165 586.9015,-164.6645 586.9015,-178.5786"/>
<polygon fill="#000000" stroke="#000000" points="583.4016,-178.7081 586.9015,-188.7081 590.4016,-178.7082 583.4016,-178.7081"/>
</g>
<!-- GO:0003676 -->
<g id="node12" class="node">
<title>GO:0003676</title>
<polygon fill="#ffffff" stroke="#000000" points="651.4284,-333.0019 522.3746,-333.0019 522.3746,-291.7981 651.4284,-291.7981 651.4284,-333.0019"/>
<text text-anchor="middle" x="586.9015" y="-316.6" font-family="Times,serif" font-size="14.00" fill="#000000">GO:0003676</text>
<text text-anchor="middle" x="586.9015" y="-299.8" font-family="Times,serif" font-size="14.00" fill="#000000">nucleic acid binding</text>
</g>
<!-- GO:0003723&#45;&gt;GO:0003676 -->
<g id="edge12" class="edge">
<title>GO:0003723&#45;&gt;GO:0003676</title>
<path fill="none" stroke="#000000" d="M586.9015,-230.4031C586.9015,-245.0337 586.9015,-264.8642 586.9015,-281.3586"/>
<polygon fill="#000000" stroke="#000000" points="583.4016,-281.6278 586.9015,-291.6278 590.4016,-281.6279 583.4016,-281.6278"/>
</g>
<!-- GO:0097159 -->
<g id="node13" class="node">
<title>GO:0097159</title>
<polygon fill="#ffffff" stroke="#000000" points="582.4129,-436.2014 425.3901,-436.2014 425.3901,-377.3986 582.4129,-377.3986 582.4129,-436.2014"/>
<text text-anchor="middle" x="503.9015" y="-419.4" font-family="Times,serif" font-size="14.00" fill="#000000">GO:0097159</text>
<text text-anchor="middle" x="503.9015" y="-402.6" font-family="Times,serif" font-size="14.00" fill="#000000">organic cyclic compound</text>
<text text-anchor="middle" x="503.9015" y="-385.8" font-family="Times,serif" font-size="14.00" fill="#000000">binding</text>
</g>
<!-- GO:0003676&#45;&gt;GO:0097159 -->
<g id="edge13" class="edge">
<title>GO:0003676&#45;&gt;GO:0097159</title>
<path fill="none" stroke="#000000" d="M568.4811,-333.3504C559.0682,-344.0562 547.3325,-357.4038 536.4571,-369.7729"/>
<polygon fill="#000000" stroke="#000000" points="533.7999,-367.4944 529.8254,-377.3155 539.0569,-372.1166 533.7999,-367.4944"/>
</g>
<!-- GO:1901363 -->
<g id="node14" class="node">
<title>GO:1901363</title>
<polygon fill="#ffffff" stroke="#000000" points="747.4121,-436.2014 600.3909,-436.2014 600.3909,-377.3986 747.4121,-377.3986 747.4121,-436.2014"/>
<text text-anchor="middle" x="673.9015" y="-419.4" font-family="Times,serif" font-size="14.00" fill="#000000">GO:1901363</text>
<text text-anchor="middle" x="673.9015" y="-402.6" font-family="Times,serif" font-size="14.00" fill="#000000">heterocyclic compound</text>
<text text-anchor="middle" x="673.9015" y="-385.8" font-family="Times,serif" font-size="14.00" fill="#000000">binding</text>
</g>
<!-- GO:0003676&#45;&gt;GO:1901363 -->
<g id="edge14" class="edge">
<title>GO:0003676&#45;&gt;GO:1901363</title>
<path fill="none" stroke="#000000" d="M606.2096,-333.3504C616.0762,-344.0562 628.3775,-357.4038 639.7769,-369.7729"/>
<polygon fill="#000000" stroke="#000000" points="637.3776,-372.334 646.7283,-377.3155 642.525,-367.5901 637.3776,-372.334"/>
</g>
<!-- GO:0097159&#45;&gt;GO:0005488 -->
<g id="edge15" class="edge">
<title>GO:0097159&#45;&gt;GO:0005488</title>
<path fill="none" stroke="#000000" d="M503.9015,-436.1513C503.9015,-447.0614 503.9015,-459.4637 503.9015,-470.492"/>
<polygon fill="#000000" stroke="#000000" points="500.4016,-470.5509 503.9015,-480.551 507.4016,-470.551 500.4016,-470.5509"/>
</g>
<!-- GO:1901363&#45;&gt;GO:0005488 -->
<g id="edge16" class="edge">
<title>GO:1901363&#45;&gt;GO:0005488</title>
<path fill="none" stroke="#000000" d="M621.0443,-436.1513C598.2572,-448.8048 571.8558,-463.4654 549.8919,-475.6618"/>
<polygon fill="#000000" stroke="#000000" points="548.1306,-472.6364 541.0872,-480.551 551.5289,-478.7561 548.1306,-472.6364"/>
</g>
<!-- GO:0004555 -->
<g id="node15" class="node">
<title>GO:0004555</title>
<polygon fill="#ffffff" stroke="#000000" points="1033.9473,-58.6014 899.8557,-58.6014 899.8557,.2014 1033.9473,.2014 1033.9473,-58.6014"/>
<text text-anchor="middle" x="966.9015" y="-41.8" font-family="Times,serif" font-size="14.00" fill="#000000">GO:0004555</text>
<text text-anchor="middle" x="966.9015" y="-25" font-family="Times,serif" font-size="14.00" fill="#000000">alpha,alpha&#45;trehalase</text>
<text text-anchor="middle" x="966.9015" y="-8.2" font-family="Times,serif" font-size="14.00" fill="#000000">activity</text>
</g>
<!-- GO:0015927 -->
<g id="node16" class="node">
<title>GO:0015927</title>
<polygon fill="#ffffff" stroke="#000000" points="1022.6382,-135.8019 911.1648,-135.8019 911.1648,-94.5981 1022.6382,-94.5981 1022.6382,-135.8019"/>
<text text-anchor="middle" x="966.9015" y="-119.4" font-family="Times,serif" font-size="14.00" fill="#000000">GO:0015927</text>
<text text-anchor="middle" x="966.9015" y="-102.6" font-family="Times,serif" font-size="14.00" fill="#000000">trehalase activity</text>
</g>
<!-- GO:0004555&#45;&gt;GO:0015927 -->
<g id="edge17" class="edge">
<title>GO:0004555&#45;&gt;GO:0015927</title>
<path fill="none" stroke="#000000" d="M966.9015,-58.7963C966.9015,-67.0638 966.9015,-76.0657 966.9015,-84.4008"/>
<polygon fill="#000000" stroke="#000000" points="963.4016,-84.4965 966.9015,-94.4966 970.4016,-84.4966 963.4016,-84.4965"/>
</g>
<!-- GO:0004553 -->
<g id="node17" class="node">
<title>GO:0004553</title>
<polygon fill="#ffffff" stroke="#000000" points="1041.7659,-247.3003 892.0371,-247.3003 892.0371,-171.8997 1041.7659,-171.8997 1041.7659,-247.3003"/>
<text text-anchor="middle" x="966.9015" y="-230.6" font-family="Times,serif" font-size="14.00" fill="#000000">GO:0004553</text>
<text text-anchor="middle" x="966.9015" y="-213.8" font-family="Times,serif" font-size="14.00" fill="#000000">hydrolase activity,</text>
<text text-anchor="middle" x="966.9015" y="-197" font-family="Times,serif" font-size="14.00" fill="#000000">hydrolyzing O&#45;glycosyl</text>
<text text-anchor="middle" x="966.9015" y="-180.2" font-family="Times,serif" font-size="14.00" fill="#000000">compounds</text>
</g>
<!-- GO:0015927&#45;&gt;GO:0004553 -->
<g id="edge18" class="edge">
<title>GO:0015927&#45;&gt;GO:0004553</title>
<path fill="none" stroke="#000000" d="M966.9015,-136.1504C966.9015,-143.8068 966.9015,-152.8143 966.9015,-161.8487"/>
<polygon fill="#000000" stroke="#000000" points="963.4016,-161.9897 966.9015,-171.9897 970.4016,-161.9897 963.4016,-161.9897"/>
</g>
<!-- GO:0016798 -->
<g id="node18" class="node">
<title>GO:0016798</title>
<polygon fill="#ffffff" stroke="#000000" points="1044.4974,-341.8014 889.3056,-341.8014 889.3056,-282.9986 1044.4974,-282.9986 1044.4974,-341.8014"/>
<text text-anchor="middle" x="966.9015" y="-325" font-family="Times,serif" font-size="14.00" fill="#000000">GO:0016798</text>
<text text-anchor="middle" x="966.9015" y="-308.2" font-family="Times,serif" font-size="14.00" fill="#000000">hydrolase activity,</text>
<text text-anchor="middle" x="966.9015" y="-291.4" font-family="Times,serif" font-size="14.00" fill="#000000">acting on glycosyl bonds</text>
</g>
<!-- GO:0004553&#45;&gt;GO:0016798 -->
<g id="edge19" class="edge">
<title>GO:0004553&#45;&gt;GO:0016798</title>
<path fill="none" stroke="#000000" d="M966.9015,-247.2952C966.9015,-255.6874 966.9015,-264.6054 966.9015,-273.0618"/>
<polygon fill="#000000" stroke="#000000" points="963.4016,-273.0813 966.9015,-283.0814 970.4016,-273.0814 963.4016,-273.0813"/>
</g>
<!-- GO:0016787 -->
<g id="node19" class="node">
<title>GO:0016787</title>
<polygon fill="#ffffff" stroke="#000000" points="1016.8181,-427.4019 900.9849,-427.4019 900.9849,-386.1981 1016.8181,-386.1981 1016.8181,-427.4019"/>
<text text-anchor="middle" x="958.9015" y="-411" font-family="Times,serif" font-size="14.00" fill="#000000">GO:0016787</text>
<text text-anchor="middle" x="958.9015" y="-394.2" font-family="Times,serif" font-size="14.00" fill="#000000">hydrolase activity</text>
</g>
<!-- GO:0016798&#45;&gt;GO:0016787 -->
<g id="edge20" class="edge">
<title>GO:0016798&#45;&gt;GO:0016787</title>
<path fill="none" stroke="#000000" d="M964.4141,-341.7513C963.4895,-352.6614 962.4385,-365.0637 961.5039,-376.092"/>
<polygon fill="#000000" stroke="#000000" points="958.0084,-375.8911 960.6514,-386.151 964.9834,-376.4823 958.0084,-375.8911"/>
</g>
<!-- GO:0003824 -->
<g id="node20" class="node">
<title>GO:0003824</title>
<polygon fill="#ffffff" stroke="#000000" points="844.3139,-521.8019 735.4891,-521.8019 735.4891,-480.5981 844.3139,-480.5981 844.3139,-521.8019"/>
<text text-anchor="middle" x="789.9015" y="-505.4" font-family="Times,serif" font-size="14.00" fill="#000000">GO:0003824</text>
<text text-anchor="middle" x="789.9015" y="-488.6" font-family="Times,serif" font-size="14.00" fill="#000000">catalytic activity</text>
</g>
<!-- GO:0016787&#45;&gt;GO:0003824 -->
<g id="edge21" class="edge">
<title>GO:0016787&#45;&gt;GO:0003824</title>
<path fill="none" stroke="#000000" d="M921.8137,-427.5165C896.498,-441.6574 862.7877,-460.4872 835.7823,-475.5719"/>
<polygon fill="#000000" stroke="#000000" points="833.9263,-472.5996 826.9028,-480.5318 837.3399,-478.7108 833.9263,-472.5996"/>
</g>
<!-- GO:0003824&#45;&gt;GO:0003674 -->
<g id="edge22" class="edge">
<title>GO:0003824&#45;&gt;GO:0003674</title>
<path fill="none" stroke="#000000" d="M735.4339,-517.5784C690.3073,-531.1479 625.7882,-550.5487 576.3148,-565.4254"/>
<polygon fill="#000000" stroke="#000000" points="575.1994,-562.1059 566.6309,-568.3373 577.2152,-568.8094 575.1994,-562.1059"/>
</g>
<!-- GO:0030506 -->
<g id="node21" class="node">
<title>GO:0030506</title>
<polygon fill="#ffffff" stroke="#000000" points="860.4485,-230.2019 755.3545,-230.2019 755.3545,-188.9981 860.4485,-188.9981 860.4485,-230.2019"/>
<text text-anchor="middle" x="807.9015" y="-213.8" font-family="Times,serif" font-size="14.00" fill="#000000">GO:0030506</text>
<text text-anchor="middle" x="807.9015" y="-197" font-family="Times,serif" font-size="14.00" fill="#000000">ankyrin binding</text>
</g>
<!-- GO:0008092 -->
<g id="node22" class="node">
<title>GO:0008092</title>
<polygon fill="#ffffff" stroke="#000000" points="870.9233,-341.8014 744.8797,-341.8014 744.8797,-282.9986 870.9233,-282.9986 870.9233,-341.8014"/>
<text text-anchor="middle" x="807.9015" y="-325" font-family="Times,serif" font-size="14.00" fill="#000000">GO:0008092</text>
<text text-anchor="middle" x="807.9015" y="-308.2" font-family="Times,serif" font-size="14.00" fill="#000000">cytoskeletal protein</text>
<text text-anchor="middle" x="807.9015" y="-291.4" font-family="Times,serif" font-size="14.00" fill="#000000">binding</text>
</g>
<!-- GO:0030506&#45;&gt;GO:0008092 -->
<g id="edge23" class="edge">
<title>GO:0030506&#45;&gt;GO:0008092</title>
<path fill="none" stroke="#000000" d="M807.9015,-230.4031C807.9015,-242.5833 807.9015,-258.3676 807.9015,-272.8305"/>
<polygon fill="#000000" stroke="#000000" points="804.4016,-273.0577 807.9015,-283.0577 811.4016,-273.0578 804.4016,-273.0577"/>
</g>
<!-- GO:0005515 -->
<g id="node23" class="node">
<title>GO:0005515</title>
<polygon fill="#ffffff" stroke="#000000" points="866.8391,-427.4019 764.9639,-427.4019 764.9639,-386.1981 866.8391,-386.1981 866.8391,-427.4019"/>
<text text-anchor="middle" x="815.9015" y="-411" font-family="Times,serif" font-size="14.00" fill="#000000">GO:0005515</text>
<text text-anchor="middle" x="815.9015" y="-394.2" font-family="Times,serif" font-size="14.00" fill="#000000">protein binding</text>
</g>
<!-- GO:0008092&#45;&gt;GO:0005515 -->
<g id="edge24" class="edge">
<title>GO:0008092&#45;&gt;GO:0005515</title>
<path fill="none" stroke="#000000" d="M810.3889,-341.7513C811.3135,-352.6614 812.3645,-365.0637 813.2991,-376.092"/>
<polygon fill="#000000" stroke="#000000" points="809.8196,-376.4823 814.1516,-386.151 816.7946,-375.8911 809.8196,-376.4823"/>
</g>
<!-- GO:0005515&#45;&gt;GO:0005488 -->
<g id="edge25" class="edge">
<title>GO:0005515&#45;&gt;GO:0005488</title>
<path fill="none" stroke="#000000" d="M777.05,-427.4378C770.4287,-430.5453 763.5434,-433.5311 756.9015,-436 690.3369,-460.7437 610.5632,-479.6084 558.6336,-490.5303"/>
<polygon fill="#000000" stroke="#000000" points="557.7101,-487.1474 548.6311,-492.6082 559.134,-494.001 557.7101,-487.1474"/>
</g>
</g>
</svg>
